<svg width="40" height="40" viewBox="0 0 40 40" fill="none" xmlns="http://www.w3.org/2000/svg">
<g clip-path="url(#clip0_37_17)">
<path d="M20.0001 37.9333C19.505 37.9333 19.0428 37.8012 18.6137 37.5701L14.2231 34.9622C13.5628 34.5991 13.8929 34.467 14.091 34.401C14.9823 34.1039 15.1473 34.0379 16.0716 33.5096C16.1708 33.4436 16.3028 33.4766 16.4017 33.5426L19.769 35.5564C19.9011 35.6224 20.0661 35.6224 20.1652 35.5564L33.3369 27.9307C33.469 27.8647 33.535 27.7327 33.535 27.5676V12.3491C33.535 12.184 33.469 12.052 33.3369 11.986L20.1652 4.39321C20.0331 4.32719 19.8681 4.32719 19.769 4.39321L6.59728 11.9861C6.46524 12.0521 6.39922 12.2172 6.39922 12.3492V27.5676C6.39922 27.6997 6.46524 27.8647 6.59728 27.9307L10.1957 30.0104C12.1434 31.0007 13.3647 29.8453 13.3647 28.69V13.6695C13.3647 13.4714 13.5298 13.2734 13.7609 13.2734H15.4446C15.6426 13.2734 15.8407 13.4384 15.8407 13.6695V28.6898C15.8407 31.2978 14.4211 32.8163 11.9452 32.8163C11.186 32.8163 10.5918 32.8163 8.90826 31.991L5.44192 30.0104C4.58365 29.5151 4.05548 28.5908 4.05548 27.6005V12.3822C4.05548 11.3919 4.58365 10.4676 5.44192 9.97234L18.6137 2.34669C19.4389 1.88455 20.5613 1.88455 21.3866 2.34669L34.5583 9.97234C35.4166 10.4675 35.9448 11.3918 35.9448 12.3822V27.6006C35.9448 28.5909 35.4166 29.5152 34.5583 30.0104L21.3866 37.6363C20.9574 37.8343 20.4623 37.9334 20.0001 37.9334M24.0605 27.4686C18.2835 27.4686 17.0951 24.8278 17.0951 22.5829C17.0951 22.3849 17.2601 22.1868 17.4912 22.1868H19.2077C19.4058 22.1868 19.571 22.3188 19.571 22.5169C19.8351 24.2665 20.5943 25.1249 24.0935 25.1249C26.8665 25.1249 28.055 24.4977 28.055 23.0122C28.055 22.1538 27.7249 21.5266 23.4003 21.0973C19.8021 20.7342 17.5572 19.942 17.5572 17.0701C17.5572 14.396 19.8019 12.8115 23.5654 12.8115C27.7908 12.8115 29.8706 14.2639 30.1347 17.4331C30.1347 17.5321 30.1017 17.6311 30.0356 17.7302C29.9696 17.7962 29.8706 17.8622 29.7716 17.8622H28.055C27.8898 17.8622 27.7249 17.7302 27.6918 17.5651C27.2957 15.7495 26.2723 15.1553 23.5654 15.1553C20.5284 15.1553 20.1652 16.2117 20.1652 17.0039C20.1652 17.9614 20.5943 18.2583 24.6877 18.7865C28.7482 19.3147 30.6628 20.074 30.6628 22.913C30.6298 25.8181 28.2531 27.4686 24.0605 27.4686Z" fill="#539E43"/>
</g>
<defs>
<clipPath id="clip0_37_17">
<rect width="31.89" height="36" fill="white" transform="translate(4.055 2)"/>
</clipPath>
</defs>
</svg>
