<svg width="40" height="40" viewBox="0 0 40 40" fill="none" xmlns="http://www.w3.org/2000/svg">
<g clip-path="url(#clip0_41_2)">
<path d="M19.8555 3.0096C11.2112 3.0096 11.7509 6.75827 11.7509 6.75827L11.7605 10.642H20.0096V11.808H8.48413C8.48413 11.808 2.95267 11.1807 2.95267 19.9027C2.95267 28.6249 7.78067 28.3156 7.78067 28.3156H10.662V24.2681C10.662 24.2681 10.5067 19.4401 15.4129 19.4401H23.5945C23.5945 19.4401 28.1912 19.5144 28.1912 14.9976V7.52933C28.1912 7.52933 28.8893 3.0096 19.8555 3.0096ZM15.3069 5.62133C15.5019 5.62116 15.6949 5.65942 15.875 5.73394C16.0552 5.80845 16.2188 5.91776 16.3567 6.0556C16.4945 6.19343 16.6038 6.3571 16.6783 6.53722C16.7528 6.71735 16.7911 6.9104 16.7909 7.10533C16.7911 7.30026 16.7528 7.49332 16.6783 7.67344C16.6038 7.85357 16.4945 8.01723 16.3567 8.15507C16.2188 8.29291 16.0552 8.40221 15.875 8.47673C15.6949 8.55124 15.5019 8.58951 15.3069 8.58933C15.112 8.58951 14.919 8.55124 14.7388 8.47673C14.5587 8.40221 14.395 8.29291 14.2572 8.15507C14.1194 8.01723 14.0101 7.85357 13.9355 7.67344C13.861 7.49332 13.8228 7.30026 13.8229 7.10533C13.8228 6.9104 13.861 6.71735 13.9355 6.53722C14.0101 6.3571 14.1194 6.19343 14.2572 6.0556C14.395 5.91776 14.5587 5.80845 14.7388 5.73394C14.919 5.65942 15.112 5.62116 15.3069 5.62133Z" fill="url(#paint0_linear_41_2)"/>
<path d="M20.1009 36.8835C28.7452 36.8835 28.2055 33.1348 28.2055 33.1348L28.1959 29.2512H19.9467V28.0852H31.4721C31.4721 28.0852 37.0036 28.7125 37.0036 19.9903C37.0036 11.2681 32.1756 11.5775 32.1756 11.5775H29.2943V15.6248C29.2943 15.6248 29.4496 20.4528 24.5433 20.4528H16.3617C16.3617 20.4528 11.7651 20.3785 11.7651 24.8955V32.3639C11.7651 32.3639 11.0671 36.8835 20.1008 36.8835M24.6493 34.272C24.4544 34.2722 24.2614 34.2339 24.0812 34.1594C23.9011 34.0849 23.7374 33.9756 23.5996 33.8377C23.4618 33.6999 23.3525 33.5362 23.2779 33.3561C23.2034 33.176 23.1652 32.9829 23.1653 32.788C23.1651 32.5931 23.2034 32.4 23.2779 32.2198C23.3524 32.0397 23.4617 31.876 23.5996 31.7382C23.7374 31.6003 23.9011 31.491 24.0812 31.4165C24.2613 31.342 24.4544 31.3037 24.6493 31.3039C24.8443 31.3037 25.0373 31.342 25.2174 31.4165C25.3976 31.491 25.5612 31.6003 25.6991 31.7381C25.8369 31.876 25.9462 32.0396 26.0207 32.2198C26.0952 32.3999 26.1335 32.5929 26.1333 32.7879C26.1335 32.9828 26.0952 33.1758 26.0207 33.356C25.9462 33.5361 25.8369 33.6998 25.6991 33.8376C25.5612 33.9754 25.3976 34.0847 25.2174 34.1593C25.0373 34.2338 24.8443 34.2722 24.6493 34.272Z" fill="url(#paint1_linear_41_2)"/>
</g>
<defs>
<linearGradient id="paint0_linear_41_2" x1="330.181" y1="307.685" x2="2017.64" y2="1978.31" gradientUnits="userSpaceOnUse">
<stop stop-color="#387EB8"/>
<stop offset="1" stop-color="#366994"/>
</linearGradient>
<linearGradient id="paint1_linear_41_2" x1="494.754" y1="532.376" x2="2306.89" y2="2245.45" gradientUnits="userSpaceOnUse">
<stop stop-color="#FFE052"/>
<stop offset="1" stop-color="#FFC331"/>
</linearGradient>
<clipPath id="clip0_41_2">
<rect width="34.1333" height="34" fill="white" transform="translate(2.93333 3)"/>
</clipPath>
</defs>
</svg>
