<svg width="40" height="40" viewBox="0 0 40 40" fill="none" xmlns="http://www.w3.org/2000/svg">
<g clip-path="url(#clip0_37_2)">
<path d="M31.5981 14.3508C31.2151 14.2193 30.8287 14.0976 30.4395 13.9856C30.5049 13.7184 30.5651 13.4545 30.6185 13.1952C31.4956 8.93738 30.9222 5.50717 28.9637 4.37778C27.0858 3.29507 24.0147 4.42404 20.9131 7.12336C20.6074 7.38986 20.3085 7.66405 20.0167 7.94565C19.8213 7.75839 19.6225 7.57477 19.4204 7.39488C16.1697 4.50869 12.9115 3.29226 10.955 4.42489C9.07883 5.51097 8.52327 8.73561 9.31294 12.7709C9.39151 13.1705 9.48022 13.5681 9.57898 13.9633C9.11778 14.0943 8.67274 14.2338 8.24683 14.3823C4.4357 15.711 2.00186 17.7934 2.00186 19.9533C2.00186 22.1841 4.6147 24.4216 8.58416 25.7784C8.90597 25.8879 9.23046 25.9894 9.55733 26.0828C9.45117 26.5084 9.35692 26.9369 9.2747 27.3677C8.52187 31.333 9.10976 34.4814 10.9809 35.5606C12.9134 36.6751 16.1571 35.5296 19.3153 32.7687C19.5714 32.5443 19.8219 32.3135 20.0665 32.0765C20.3825 32.3814 20.707 32.6775 21.0395 32.9643C24.0989 35.5969 27.1204 36.6599 28.9897 35.5777C30.9204 34.46 31.5479 31.0778 30.7332 26.9628C30.6691 26.6404 30.5971 26.3196 30.5174 26.0007C30.7452 25.9332 30.9688 25.8637 31.1867 25.7915C35.3134 24.4243 37.9983 22.2139 37.9983 19.9533C37.9983 17.7855 35.4859 15.6891 31.5981 14.3508ZM30.7032 24.3319C30.5063 24.397 30.3044 24.4599 30.0985 24.5211C29.6429 23.0788 29.0282 21.5453 28.2758 19.9607C28.9937 18.414 29.5849 16.9001 30.0277 15.4672C30.3959 15.5738 30.7532 15.6862 31.0977 15.8047C34.4288 16.9515 36.4606 18.6469 36.4606 19.9533C36.4606 21.3448 34.2662 23.1512 30.7032 24.3319ZM29.2248 27.2614C29.585 29.0809 29.6363 30.7261 29.3977 32.0123C29.1834 33.1679 28.7523 33.9384 28.2191 34.247C27.0848 34.9036 24.6588 34.0501 22.0425 31.7987C21.7332 31.532 21.4314 31.2567 21.1374 30.9733C22.1517 29.864 23.1654 28.5745 24.1547 27.1422C25.895 26.9878 27.539 26.7353 29.0299 26.3906C29.1017 26.6793 29.1667 26.9697 29.2248 27.2614ZM14.2739 34.1335C13.1656 34.5248 12.2828 34.5361 11.7492 34.2284C10.6137 33.5736 10.1417 31.0456 10.7856 27.6546C10.8621 27.2539 10.9497 26.8554 11.0484 26.4595C12.5228 26.7857 14.1549 27.0203 15.8992 27.1617C16.8953 28.5632 17.9382 29.8513 18.9893 30.9793C18.7659 31.1955 18.5372 31.4061 18.3035 31.611C16.9068 32.8317 15.5073 33.6979 14.2739 34.1335ZM9.08164 24.3233C7.32639 23.7234 5.87683 22.9437 4.88327 22.0928C3.99039 21.3283 3.53973 20.5692 3.53973 19.9533C3.53973 18.6425 5.4938 16.9706 8.75303 15.8344C9.14857 15.6966 9.56253 15.5665 9.9921 15.4445C10.4426 16.9096 11.0335 18.4416 11.7465 19.9907C11.0242 21.5627 10.4249 23.1192 9.97002 24.6016C9.67166 24.5162 9.37544 24.4234 9.08164 24.3233ZM10.8221 12.4754C10.1456 9.01823 10.5949 6.41032 11.7256 5.75577C12.9297 5.05862 15.5926 6.0526 18.3994 8.5448C18.5824 8.70768 18.7625 8.87386 18.9395 9.04326C17.8936 10.1663 16.8603 11.4449 15.873 12.8381C14.1801 12.995 12.5595 13.247 11.0696 13.5846C10.9778 13.2171 10.8953 12.8471 10.8221 12.4754ZM26.3494 16.3098C25.9975 15.7019 25.6325 15.1017 25.2547 14.5095C26.4033 14.6548 27.5037 14.8476 28.537 15.0832C28.2268 16.0776 27.8402 17.1172 27.385 18.183C27.0523 17.5518 26.707 16.9272 26.3494 16.3098ZM20.0174 10.1424C20.7266 10.9109 21.437 11.7687 22.1357 12.6996C20.7183 12.6326 19.2986 12.6324 17.8812 12.6987C18.5806 11.7765 19.297 10.9197 20.0174 10.1424ZM13.6448 16.3202C13.2916 16.9327 12.9528 17.5533 12.6286 18.1816C12.1809 17.1196 11.7977 16.0752 11.4848 15.0668C12.5119 14.837 13.6071 14.6492 14.7483 14.5066C14.3663 15.1023 13.9984 15.7071 13.6448 16.3202ZM14.781 25.5094C13.602 25.3778 12.4903 25.1996 11.4636 24.9761C11.7814 23.9496 12.173 22.8831 12.6304 21.7983C12.9559 22.427 13.2961 23.048 13.6508 23.6608C14.0155 24.2907 14.3932 24.9077 14.781 25.5094ZM20.0599 29.8726C19.3309 29.0863 18.604 28.2163 17.894 27.2807C18.5833 27.3077 19.2859 27.3215 20.0001 27.3215C20.7338 27.3215 21.4591 27.305 22.173 27.2732C21.472 28.2257 20.7643 29.097 20.0599 29.8726ZM27.3995 21.7429C27.8807 22.8396 28.2862 23.9005 28.6082 24.9094C27.5646 25.1476 26.4377 25.3394 25.2504 25.4818C25.6309 24.8787 25.9993 24.268 26.3555 23.6502C26.7176 23.0223 27.0657 22.3863 27.3995 21.7429ZM25.0234 22.8819C24.4782 23.8292 23.9023 24.7584 23.2966 25.6682C22.1995 25.7459 21.1 25.7845 20.0001 25.7839C18.8799 25.7839 17.7903 25.749 16.741 25.681C16.1195 24.7733 15.5326 23.8424 14.9815 22.8904C14.4331 21.9434 13.9209 20.9759 13.4458 19.99C13.9196 19.0039 14.4304 18.0359 14.977 17.0882L14.9769 17.0883C15.5233 16.1404 16.1055 15.2135 16.7223 14.3097C17.7928 14.2287 18.8905 14.1865 20 14.1865C21.1144 14.1865 22.2137 14.2291 23.2839 14.3107C23.8945 15.2131 24.473 16.1368 25.0184 17.08C25.5668 18.0257 26.0844 18.9889 26.5702 19.9682C26.0893 20.9575 25.5734 21.9294 25.0234 22.8819ZM28.1956 5.70993C29.401 6.40511 29.8697 9.20848 29.1124 12.8848C29.064 13.1193 29.0098 13.3582 28.9507 13.6005C27.4571 13.2557 25.8355 12.9994 24.1376 12.84C23.1485 11.4315 22.1236 10.151 21.0948 9.04242C21.3644 8.7825 21.6405 8.52932 21.9227 8.28312C24.5802 5.97049 27.064 5.05736 28.1956 5.70993ZM20.0001 16.7389C21.7753 16.7389 23.2145 18.1781 23.2145 19.9533C23.2145 21.7285 21.7753 23.1677 20.0001 23.1677C18.2249 23.1677 16.7857 21.7285 16.7857 19.9533C16.7857 18.1781 18.2249 16.7389 20.0001 16.7389Z" fill="#00D8FF"/>
</g>
<defs>
<clipPath id="clip0_37_2">
<rect width="36" height="32.0594" fill="white" transform="translate(2 3.97031)"/>
</clipPath>
</defs>
</svg>
